<svg width="22" height="22" viewBox="0 0 22 22" fill="none" xmlns="http://www.w3.org/2000/svg">
<path fill-rule="evenodd" clip-rule="evenodd" d="M0.5 11C0.5 16.1917 4.29167 20.5083 9.25 21.3833L9.30853 21.3365C9.28902 21.3327 9.26951 21.3289 9.25 21.325V13.9167H6.625V11H9.25V8.66667C9.25 6.04167 10.9417 4.58333 13.3333 4.58333C14.0917 4.58333 14.9083 4.7 15.6667 4.81667V7.5H14.325C13.0417 7.5 12.75 8.14167 12.75 8.95833V11H15.55L15.0833 13.9167H12.75V21.325C12.7305 21.3289 12.711 21.3327 12.6915 21.3365L12.75 21.3833C17.7083 20.5083 21.5 16.1917 21.5 11C21.5 5.225 16.775 0.5 11 0.5C5.225 0.5 0.5 5.225 0.5 11Z" fill="#F20505"/>
</svg>
