<svg width="22" height="22" viewBox="0 0 22 22" fill="none" xmlns="http://www.w3.org/2000/svg">
<path d="M11.0005 0.818115C8.23534 0.818115 7.88833 0.830206 6.8023 0.879631C5.71839 0.929267 4.97853 1.10087 4.33116 1.35266C3.66151 1.61272 3.09347 1.9606 2.52755 2.52675C1.9612 3.09269 1.61333 3.66075 1.35243 4.33021C1.10002 4.97781 0.928203 5.7179 0.879416 6.80142C0.830842 7.88748 0.818115 8.23472 0.818115 10.9999C0.818115 13.7651 0.830418 14.1111 0.879629 15.1972C0.929476 16.2811 1.10108 17.021 1.35264 17.6684C1.61291 18.3381 1.96078 18.9061 2.52691 19.4721C3.09262 20.0384 3.66067 20.3871 4.32989 20.6472C4.97769 20.899 5.71775 21.0706 6.80145 21.1202C7.88748 21.1697 8.23428 21.1817 10.9992 21.1817C13.7645 21.1817 14.1105 21.1697 15.1965 21.1202C16.2804 21.0706 17.0211 20.899 17.6689 20.6472C18.3384 20.3871 18.9056 20.0384 19.4713 19.4721C20.0376 18.9061 20.3855 18.3381 20.6464 17.6686C20.8967 17.021 21.0685 16.2809 21.1194 15.1974C21.1682 14.1113 21.1809 13.7651 21.1809 10.9999C21.1809 8.23472 21.1682 7.88769 21.1194 6.80163C21.0685 5.71769 20.8967 4.97781 20.6464 4.33042C20.3855 3.66075 20.0376 3.09269 19.4713 2.52675C18.9049 1.96039 18.3386 1.61251 17.6683 1.35266C17.0192 1.10087 16.279 0.929267 15.195 0.879631C14.109 0.830206 13.7633 0.818115 10.9973 0.818115H11.0005ZM10.0871 2.65296C10.3582 2.65254 10.6607 2.65296 11.0005 2.65296C13.7189 2.65296 14.0411 2.66272 15.1147 2.71151C16.1074 2.7569 16.6461 2.92278 17.005 3.06215C17.4802 3.24669 17.8189 3.4673 18.175 3.82366C18.5314 4.18002 18.752 4.51942 18.937 4.99457C19.0763 5.35305 19.2424 5.89184 19.2876 6.88457C19.3364 7.9579 19.347 8.28033 19.347 10.9976C19.347 13.7149 19.3364 14.0373 19.2876 15.1106C19.2422 16.1034 19.0763 16.6421 18.937 17.0006C18.7524 17.4758 18.5314 17.8141 18.175 18.1703C17.8187 18.5266 17.4804 18.7472 17.005 18.9318C16.6465 19.0718 16.1074 19.2372 15.1147 19.2826C14.0414 19.3314 13.7189 19.342 11.0005 19.342C8.2818 19.342 7.9596 19.3314 6.8863 19.2826C5.8936 19.2368 5.35483 19.0709 4.99572 18.9316C4.52058 18.747 4.1812 18.5264 3.82484 18.1701C3.46849 17.8137 3.24789 17.4751 3.06293 16.9998C2.92357 16.6413 2.75748 16.1025 2.7123 15.1098C2.66351 14.0364 2.65376 13.714 2.65376 10.9951C2.65376 8.27608 2.66351 7.95536 2.7123 6.88202C2.75769 5.8893 2.92357 5.35051 3.06293 4.9916C3.24747 4.51645 3.46849 4.17705 3.82484 3.82069C4.1812 3.46433 4.52058 3.24372 4.99572 3.05875C5.35461 2.91875 5.8936 2.7533 6.8863 2.70769C7.82554 2.66527 8.18953 2.65254 10.0871 2.65042V2.65296ZM16.4353 4.34357C15.7608 4.34357 15.2135 4.89021 15.2135 5.56496C15.2135 6.23951 15.7608 6.78678 16.4353 6.78678C17.1098 6.78678 17.6571 6.23951 17.6571 5.56496C17.6571 4.89042 17.1098 4.34315 16.4353 4.34315V4.34357ZM11.0005 5.77114C8.11295 5.77114 5.77184 8.11233 5.77184 10.9999C5.77184 13.8875 8.11295 16.2277 11.0005 16.2277C13.888 16.2277 16.2283 13.8875 16.2283 10.9999C16.2283 8.11233 13.8878 5.77114 11.0003 5.77114H11.0005ZM11.0005 7.60599C12.8747 7.60599 14.3943 9.12542 14.3943 10.9999C14.3943 12.8742 12.8747 14.3939 11.0005 14.3939C9.12601 14.3939 7.60664 12.8742 7.60664 10.9999C7.60664 9.12542 9.12601 7.60599 11.0005 7.60599Z" fill="#F20505"/>
</svg>
